<?xml version="1.0" encoding="UTF-8"?>
<svg id="Layer_2" data-name="Layer 2" xmlns="http://www.w3.org/2000/svg" viewBox="0 0 780.79 328.93">
  <defs>
    <style>
      .cls-1 {
        fill: #fff;
      }

      .cls-2 {
        fill: #ec6b23;
      }
    </style>
  </defs>
  <g id="Layer_1-2" data-name="Layer 1">
    <path class="cls-1" d="M.06,306.98c.12-1.64.86-3.86.91-5.64L32.38.77c-.01-.25.29-.76.46-.76h108.42l-11.89,114.31c1.49-1.49,3.21-2.82,4.73-4.26,34.79-32.83,67.96-67.46,102.61-100.45,6.36-5.61,13.88-8.92,22.41-9.61l122.46.02-152.15,148.04,68.28,112.59c-5.65,11.26-11.11,22.82-16.77,34.14-5.63,11.26-11.37,22.47-16.77,33.84v.3h-43.92c-6.35-1.27-11.36-4.08-15.19-9.35l-58.15-91.85c-10.84,10.71-22.04,21.06-32.71,31.92l-7.39,69.28H15.61c-7.96-1.36-13.9-7-15.55-14.94.13-2.29-.17-4.74,0-7.01Z"/>
    <path class="cls-2" d="M771.64,86.89c-40.45,24.43-80.7,49.21-121.07,73.77-12.05,7.33-24.3,14.36-36.27,21.82-.72.45-4.45,2.62-4.54,3.06l28.3,94.92c-1.7,16.15-3.39,32.33-5.18,48.47h-78.38c-6.54-1.33-11.84-5.18-14.26-11.5l-19.44-77.82-147.15,89.32h-109.49v-.3l508.24-248.44c.02,1.07-.04,2.44-.16,3.5-.11,1-.51,2.3-.61,3.2Z"/>
    <path class="cls-1" d="M746.94,328.93h-114.06c1.8-16.14,3.49-32.31,5.18-48.47,4.19-39.93,8.38-79.87,12.5-119.8,40.37-24.56,80.63-49.34,121.07-73.77-.08.74.08,1.53,0,2.28-8.3,79.91-16.66,159.82-24.7,239.75Z"/>
    <path class="cls-2" d="M297.71,260.64c39.04-77.78,78.89-155.4,117.67-233.4C423.9,11.43,440.27,1.09,458.27,0l96.51.04,39.66,133.66,7.41-2.69c18.08-7.16,36.13-14.42,54.21-21.57,39.43-15.58,78.87-31.14,118.33-46.64-.55,1.17-.44,7.19-1.1,7.65l-492.35,224.33c5.66-11.32,11.13-22.89,16.77-34.14ZM436.48,196.32l66.96-26.51.08-.98c-5.43-20.53-9.75-41.44-15.67-61.79-3.04-3.86-7.94-3.27-10.32.93-3.23,5.69-5.83,13.29-8.67,19.38-10.13,21.7-20.82,43.16-30.81,64.92-.25.55-1.78,3.84-1.57,4.07Z"/>
    <path class="cls-1" d="M656.06,109.45l6.75-65.04C666.56,19.79,686.45,1.51,711.4,0h69.4s-6.41,62.81-6.41,62.81c-39.46,15.5-78.9,31.06-118.33,46.64Z"/>
  </g>
</svg>