<?xml version="1.0" encoding="UTF-8"?>
<svg id="Layer_2" data-name="Layer 2" xmlns="http://www.w3.org/2000/svg" xmlns:xlink="http://www.w3.org/1999/xlink" viewBox="0 0 420.36 168.51">
  <defs>
    <style>
      .cls-1 {
        fill: #fff;
      }

      .cls-2 {
        clip-path: url(#clippath-1);
      }

      .cls-3 {
        clip-path: url(#clippath-3);
      }

      .cls-4, .cls-5 {
        fill: #1b1464;
      }

      .cls-5 {
        stroke: #1b1464;
        stroke-miterlimit: 10;
        stroke-width: 2px;
      }

      .cls-6 {
        fill: #f56a17;
      }

      .cls-7 {
        clip-path: url(#clippath-2);
      }

      .cls-8 {
        clip-path: url(#clippath);
      }
    </style>
    <clipPath id="clippath">
      <circle class="cls-4" cx="84.26" cy="84.26" r="84.26"/>
    </clipPath>
    <clipPath id="clippath-1">
      <path class="cls-6" d="M-9.46,28.93H118.91c13.97,0,25.31,11.34,25.31,25.31h0c0,5.29-4.3,9.59-9.59,9.59H-9.46c-6.28,0-11.38-5.1-11.38-11.38v-12.14c0-6.28,5.1-11.38,11.38-11.38Z"/>
    </clipPath>
    <clipPath id="clippath-2">
      <path class="cls-1" d="M36.11,71.61h144.09c5.29,0,9.59,4.3,9.59,9.59h0c0,13.97-11.34,25.31-25.31,25.31H36.11c-6.28,0-11.38-5.1-11.38-11.38v-12.14c0-6.28,5.1-11.38,11.38-11.38Z" transform="translate(214.52 178.13) rotate(180)"/>
    </clipPath>
    <clipPath id="clippath-3">
      <path class="cls-6" d="M70.72,114.3h144.09c5.29,0,9.59,4.3,9.59,9.59h0c0,13.97-11.34,25.31-25.31,25.31H70.72c-6.28,0-11.38-5.1-11.38-11.38v-12.14c0-6.28,5.1-11.38,11.38-11.38Z" transform="translate(283.74 263.51) rotate(-180)"/>
    </clipPath>
  </defs>
  <g id="Layer_1-2" data-name="Layer 1">
    <g>
      <circle class="cls-4" cx="84.26" cy="84.26" r="84.26"/>
      <g class="cls-8">
        <g>
          <path class="cls-6" d="M-9.46,28.93H118.91c13.97,0,25.31,11.34,25.31,25.31h0c0,5.29-4.3,9.59-9.59,9.59H-9.46c-6.28,0-11.38-5.1-11.38-11.38v-12.14c0-6.28,5.1-11.38,11.38-11.38Z"/>
          <g class="cls-2">
            <circle class="cls-1" cx="120.41" cy="44.05" r="6.28"/>
            <rect class="cls-1" x="38.51" y="37.32" width="60.22" height="12.56" rx="6.28" ry="6.28"/>
          </g>
        </g>
        <g>
          <path class="cls-1" d="M36.11,71.61h144.09c5.29,0,9.59,4.3,9.59,9.59h0c0,13.97-11.34,25.31-25.31,25.31H36.11c-6.28,0-11.38-5.1-11.38-11.38v-12.14c0-6.28,5.1-11.38,11.38-11.38Z" transform="translate(214.52 178.13) rotate(180)"/>
          <g class="cls-7">
            <circle class="cls-4" cx="44.57" cy="86.74" r="6.28"/>
            <rect class="cls-4" x="61.77" y="80.46" width="65.54" height="12.56" rx="6.28" ry="6.28" transform="translate(189.08 173.48) rotate(-180)"/>
          </g>
        </g>
        <g>
          <path class="cls-6" d="M70.72,114.3h144.09c5.29,0,9.59,4.3,9.59,9.59h0c0,13.97-11.34,25.31-25.31,25.31H70.72c-6.28,0-11.38-5.1-11.38-11.38v-12.14c0-6.28,5.1-11.38,11.38-11.38Z" transform="translate(283.74 263.51) rotate(-180)"/>
          <g class="cls-3">
            <circle class="cls-4" cx="79.19" cy="129.43" r="6.28"/>
            <rect class="cls-4" x="96.38" y="123.15" width="37" height="12.56" rx="6.28" ry="6.28" transform="translate(229.76 258.86) rotate(180)"/>
          </g>
        </g>
        <path class="cls-5" d="M84.26-1C37.72-1-1,37.72-1,84.26s38.72,85.26,85.26,85.26,85.26-38.72,85.26-85.26S130.79-1,84.26-1ZM84.26,159.19c-41.32,0-74.93-33.62-74.93-74.93S42.94,9.32,84.26,9.32s74.93,33.62,74.93,74.93-33.62,74.93-74.93,74.93Z"/>
      </g>
    </g>
    <g>
      <path class="cls-1" d="M234.24,43.81c-1.29-3.02-3.08-5.65-5.38-7.91-2.31-2.25-5-4.01-8.09-5.27-3.08-1.26-6.43-1.89-10.04-1.89h-18.95v49.86h19.09c3.56,0,6.89-.62,9.97-1.88,3.09-1.26,5.77-3.02,8.05-5.27,2.28-2.26,4.06-4.91,5.35-7.95,1.28-3.03,1.92-6.31,1.92-9.83s-.64-6.84-1.92-9.86ZM225.58,62.76c-1.45,2.63-3.47,4.69-6.05,6.16-2.59,1.47-5.6,2.21-9.01,2.21h-10.55v-34.91h10.55c3.37,0,6.35.74,8.94,2.21,2.58,1.47,4.61,3.52,6.09,6.13,1.47,2.61,2.2,5.62,2.2,9.04s-.72,6.52-2.17,9.16Z"/>
      <path class="cls-1" d="M267,28.74h-5.7l-20.51,49.86h8.69l3.83-9.61h21.43l3.8,9.61h8.83l-20.37-49.86ZM256.15,61.87l7.92-19.87,7.86,19.87h-15.78Z"/>
      <path class="cls-1" d="M337.2,43.67c-1.31-3.11-3.13-5.84-5.45-8.19-2.33-2.35-5.02-4.18-8.09-5.49-3.06-1.3-6.37-1.96-9.93-1.96s-6.88.66-9.94,1.96c-3.06,1.31-5.75,3.14-8.05,5.49-2.3,2.35-4.11,5.07-5.41,8.15-1.31,3.09-1.96,6.41-1.96,9.97s.65,6.9,1.96,10.01c1.3,3.11,3.12,5.84,5.45,8.19,2.32,2.35,5.03,4.19,8.12,5.52,3.08,1.33,6.41,2,9.97,2s6.8-.67,9.86-2c3.07-1.33,5.75-3.15,8.05-5.48,2.31-2.33,4.11-5.05,5.42-8.16,1.3-3.11,1.96-6.44,1.96-10.01s-.66-6.89-1.96-10ZM328.58,62.9c-1.45,2.68-3.45,4.78-5.99,6.3-2.54,1.52-5.49,2.28-8.86,2.28-2.47,0-4.75-.44-6.84-1.32-2.09-.87-3.88-2.1-5.38-3.66-1.49-1.57-2.66-3.46-3.49-5.67-.83-2.2-1.25-4.61-1.25-7.23,0-3.51.73-6.6,2.18-9.26,1.44-2.65,3.44-4.73,5.98-6.23,2.54-1.49,5.47-2.24,8.8-2.24,2.51,0,4.8.42,6.87,1.28,2.07.85,3.86,2.08,5.38,3.67,1.52,1.59,2.69,3.46,3.52,5.63.83,2.16,1.25,4.54,1.25,7.15,0,3.52-.72,6.62-2.17,9.3Z"/>
      <path class="cls-1" d="M380.36,36.08c-1.45-2.32-3.42-4.13-5.91-5.41-2.49-1.28-5.31-1.93-8.44-1.93h-18.52v49.86h8.19v-18.8h10.33c3.13,0,5.95-.64,8.44-1.92,2.49-1.28,4.46-3.09,5.91-5.42,1.45-2.32,2.17-5.05,2.17-8.19s-.72-5.86-2.17-8.19ZM373.2,48.72c-.76,1.26-1.79,2.24-3.1,2.93-1.3.68-2.81,1.03-4.52,1.03h-9.9v-16.81h9.9c1.71,0,3.22.34,4.52,1.03,1.31.69,2.34,1.66,3.1,2.92s1.14,2.74,1.14,4.45-.38,3.2-1.14,4.45Z"/>
      <polygon class="cls-6" points="420.36 28.74 420.36 33.73 402.62 78.6 394.07 78.6 411.29 36.08 386.95 36.08 386.95 28.74 420.36 28.74"/>
      <path class="cls-1" d="M234.24,99.66c-1.29-3.01-3.08-5.65-5.38-7.9-2.31-2.26-5-4.02-8.09-5.28-3.08-1.25-6.43-1.88-10.04-1.88h-18.95v49.86h19.09c3.56,0,6.89-.63,9.97-1.89,3.09-1.26,5.77-3.02,8.05-5.27,2.28-2.26,4.06-4.9,5.35-7.94,1.28-3.04,1.92-6.32,1.92-9.83s-.64-6.85-1.92-9.87ZM225.58,118.61c-1.45,2.63-3.47,4.69-6.05,6.16-2.59,1.47-5.6,2.21-9.01,2.21h-10.55v-34.9h10.55c3.37,0,6.35.73,8.94,2.2,2.58,1.48,4.61,3.52,6.09,6.13,1.47,2.61,2.2,5.63,2.2,9.05s-.72,6.51-2.17,9.15Z"/>
      <path class="cls-1" d="M264.66,113.24c2.52-.15,4.77-.73,6.76-1.72,2.37-1.19,4.21-2.85,5.52-4.98,1.3-2.14,1.96-4.66,1.96-7.56,0-2.75-.66-5.21-1.96-7.37-1.31-2.16-3.15-3.87-5.52-5.13-2.38-1.25-5.13-1.88-8.27-1.88h-18.66v49.86h8.19v-21.16h2.11l17.05,21.16h10.33l-17.51-21.22ZM252.68,91.72h10.12c2.51,0,4.46.71,5.84,2.14,1.37,1.42,2.06,3.18,2.06,5.27,0,2.32-.7,4.14-2.1,5.45-1.4,1.3-3.36,1.96-5.87,1.96h-10.05v-14.82Z"/>
      <path class="cls-1" d="M288.23,134.46v-49.86h8.19v49.86h-8.19Z"/>
      <polygon class="cls-1" points="349.7 84.6 329.4 134.46 323.7 134.46 303.54 84.6 312.44 84.6 326.63 120.97 340.94 84.6 349.7 84.6"/>
      <polygon class="cls-1" points="390.37 126.98 390.37 134.46 356.82 134.46 356.82 84.6 390.01 84.6 390.01 92.08 365.01 92.08 365.01 105.4 387.95 105.4 387.95 112.59 365.01 112.59 365.01 126.98 390.37 126.98"/>
    </g>
  </g>
</svg>